<?xml version="1.0" standalone="no"?>
<!DOCTYPE svg PUBLIC "-//W3C//DTD SVG 20010904//EN"
 "http://www.w3.org/TR/2001/REC-SVG-20010904/DTD/svg10.dtd">
<svg version="1.0" xmlns="http://www.w3.org/2000/svg"
 width="1024.000000pt" height="1024.000000pt" viewBox="0 0 1024.000000 1024.000000"
 preserveAspectRatio="xMidYMid meet">
<metadata>
Created by potrace 1.11, written by Peter Selinger 2001-2013
</metadata>
<g transform="translate(0.000000,1024.000000) scale(0.100000,-0.100000)"
fill="#000000" stroke="none">
<path d="M0 5120 l0 -5120 5120 0 5120 0 0 5120 0 5120 -5120 0 -5120 0 0
-5120z m5247 2219 c347 -38 641 -237 804 -544 41 -78 632 -1106 809 -1410 48
-82 339 -586 646 -1120 306 -533 570 -991 585 -1017 l28 -48 -302 0 -302 1
-295 514 c-162 283 -298 513 -303 512 -4 -1 -140 -232 -301 -512 l-295 -510
-299 -3 -299 -2 -294 510 c-161 280 -296 510 -299 510 -4 0 -139 -229 -300
-510 l-295 -510 -303 0 -304 0 14 23 c67 103 757 1313 776 1361 33 81 41 207
19 293 -47 180 -176 321 -346 374 -93 29 -224 28 -311 -1 -78 -26 -190 -99
-226 -146 -14 -18 -268 -453 -564 -966 l-539 -933 -302 -3 c-244 -2 -300 0
-296 11 9 24 1169 2032 1217 2107 27 41 234 397 461 790 226 393 433 747 458
785 56 86 174 206 260 264 141 96 319 162 481 180 109 12 112 12 217 0z"/>
<path d="M5055 6819 c-128 -21 -249 -95 -329 -203 -25 -32 -476 -811 -476
-820 0 -4 25 -6 55 -6 128 0 324 -61 467 -146 96 -57 263 -216 322 -307 l38
-59 22 34 c73 108 453 784 473 838 28 80 31 218 7 301 -42 143 -136 254 -269
320 -109 53 -199 67 -310 48z"/>
<path d="M5920 5264 c-172 -37 -264 -118 -398 -353 l-93 -162 293 -510 c161
-280 296 -509 299 -509 6 0 428 728 467 805 53 106 68 258 36 366 -39 132
-149 264 -268 322 -64 31 -170 57 -231 56 -22 0 -69 -7 -105 -15z"/>
</g>
</svg>
